<?xml version="1.0" encoding="utf-8"?>
<!-- Generator: Adobe Illustrator 25.1.0, SVG Export Plug-In . SVG Version: 6.00 Build 0)  -->
<svg version="1.1" id="Layer_2_1_" xmlns="http://www.w3.org/2000/svg" xmlns:xlink="http://www.w3.org/1999/xlink" x="0px" y="0px"
	 viewBox="0 0 1600 1200" style="enable-background:new 0 0 1600 1200;" xml:space="preserve">
<style type="text/css">
	.st0{fill:#98D8F4;}
	.st1{fill:#6C79D9;}
	.st2{fill:#F696BB;}
	.st3{fill:#F9494B;}
	.st4{fill:#FFFFFF;}
</style>
<g id="box_1_">
	<rect x="801" y="835.4" width="169.6" height="169.6"/>
	<g id="cat">
		<path class="st0" d="M745.5,1005.2v-0.3c-1.4-8.7,2.6-15.4,12.3-20.8c19.5-10.7,80.1-30.3,80.7-30.5c0.8-0.3,85.9-29.8,160.1-29.8
			c3.8,0,7.5,0.1,11.2,0.2c18.9,0.8,32.8,7.2,41.2,18.9c16.9,23.7,5.9,61.6,5.8,62v0.1H745.5V1005.2z"/>
		<path class="st0" d="M874.1,975.9c-2.3,0-4.7-0.1-7.1-0.4c-30.8-3.1-34.1-28.4-33.4-43.1c1.4-28.1,18.7-60.5,28.9-60.5
			c0.2,0,0.3,0,0.5,0c7.7,0.9,12.5,26,12.9,28.5h34.2c1.6-1.5,23.5-22.5,33-22.5c1.1,0,2,0.3,2.7,0.9c5,4.2,3.8,21.6-2.7,39.7
			C938.3,931.9,918.9,975.9,874.1,975.9L874.1,975.9z"/>
		<g>
			<path d="M874.3,977.7c-2.4,0-4.9-0.1-7.4-0.4C851.1,975.7,840,968,835,955c-0.4-1,0.1-2.2,1.1-2.6c1-0.4,2.2,0.1,2.6,1.1
				c4.5,11.6,14.1,18.3,28.5,19.7c17,1.7,48.5-1.8,69.4-45.1c0.5-1,1.7-1.4,2.7-0.9c1,0.5,1.4,1.7,0.9,2.7
				c-7,14.6-16.5,26.6-27.4,34.7C901.4,973.3,888.4,977.7,874.3,977.7z"/>
		</g>
		<g>
			<path d="M882.4,936H871c-1.1,0-2-0.9-2-2s0.9-2,2-2h11.4c1.1,0,2,0.9,2,2S883.5,936,882.4,936z"/>
		</g>
		<g>
			<path d="M874,949.7c-0.1,0-0.3,0-0.4,0c-1.1-0.2-1.8-1.3-1.6-2.3l2.7-13.7c0.2-1.1,1.3-1.8,2.3-1.6c1.1,0.2,1.8,1.3,1.6,2.3
				l-2.7,13.7C875.8,949,874.9,949.7,874,949.7z"/>
		</g>
		<g>
			<path d="M874.9,950.8c-5.2,0-10.1-1.9-13.2-5.7c-0.7-0.8-0.6-2.1,0.3-2.8c0.8-0.7,2.1-0.6,2.8,0.3c4.9,5.9,14.9,5.1,20.9,0.7
				c0.9-0.7,2.1-0.5,2.8,0.4c0.7,0.9,0.5,2.1-0.4,2.8C884.1,949.3,879.4,950.8,874.9,950.8z"/>
		</g>
		<g>
			<path d="M904.5,931.1c-0.3,0-0.6-0.1-0.9-0.2c-1-0.5-1.4-1.7-0.9-2.7l1-2c0.5-1,1.7-1.4,2.7-0.9c1,0.5,1.4,1.7,0.9,2.7l-1,2
				C905.9,930.7,905.2,931.1,904.5,931.1z"/>
		</g>
		<g>
			<path d="M929.1,908.4c-0.3,0-0.7-0.1-1-0.3c-1-0.5-1.3-1.8-0.8-2.7l4.9-8.8c0.5-1,1.8-1.3,2.7-0.8c1,0.5,1.3,1.8,0.8,2.7
				l-4.9,8.8C930.5,908,929.8,908.4,929.1,908.4z"/>
		</g>
		<g>
			<path d="M859.2,906.5c-1.1,0-2-0.9-2-2v-9.9c0-1.1,0.9-2,2-2s2,0.9,2,2v9.9C861.2,905.6,860.3,906.5,859.2,906.5z"/>
		</g>
		<g>
			<path d="M856.3,931.1c-0.3,0-0.6-0.1-0.9-0.2c-1-0.5-1.4-1.7-0.9-2.7l1-2c0.5-1,1.7-1.4,2.7-0.9c1,0.5,1.4,1.7,0.9,2.7l-1,2
				C857.7,930.7,857,931.1,856.3,931.1z"/>
		</g>
		<g>
			<path d="M814.5,1005.9c-1,0-1.8-0.7-2-1.7c-1.5-9.5,2.8-17,13.2-22.8c5.3-3,14.3-6.9,26.7-11.6c1-0.4,2.2,0.1,2.6,1.2
				c0.4,1-0.1,2.2-1.2,2.6c-12.2,4.7-21,8.5-26.1,11.4c-8.9,4.9-12.5,10.9-11.2,18.6c0.2,1.1-0.6,2.1-1.7,2.3
				C814.7,1005.9,814.6,1005.9,814.5,1005.9z"/>
		</g>
		<g>
			<path d="M906.4,1005.8c-1,0-1.8-0.7-2-1.7c-1.8-11.2,3.6-18.5,17-22.9c8.4-2.8,14.9-3.8,25.8-4.9c2.4-6.5,14.6-34.8,49.5-37.5
				c1.1-0.1,2.1,0.7,2.2,1.8c0.1,1.1-0.7,2.1-1.8,2.2c-36.6,2.9-46.3,35.6-46.4,36c-0.2,0.8-0.9,1.4-1.7,1.4
				c-11.4,1-17.9,2-26.2,4.8c-14.5,4.8-15.4,12-14.4,18.5c0.2,1.1-0.6,2.1-1.7,2.3C906.6,1005.8,906.5,1005.8,906.4,1005.8z"/>
		</g>
		<g>
			<path d="M758.4,1005.8c-0.9,0-1.7-0.6-1.9-1.5c-1.1-4.1,0-8.4,2.8-11.6c0.7-0.8,2-0.9,2.8-0.2c0.8,0.7,0.9,2,0.2,2.8
				c-2,2.2-2.7,5.2-2,8c0.3,1.1-0.4,2.2-1.4,2.4C758.7,1005.8,758.6,1005.8,758.4,1005.8z"/>
		</g>
		<g>
			<path d="M769.3,1005.8c-0.9,0-1.7-0.6-1.9-1.5c-1.1-4.1,0-8.4,2.8-11.6c0.7-0.8,2-0.9,2.8-0.2c0.8,0.7,0.9,2,0.2,2.8
				c-2,2.2-2.7,5.2-2,8c0.3,1.1-0.4,2.2-1.4,2.4C769.6,1005.8,769.5,1005.8,769.3,1005.8z"/>
		</g>
		<g>
			<path d="M827.3,1005.8c-0.9,0-1.7-0.6-1.9-1.5c-1.1-4.1,0-8.4,2.8-11.6c0.7-0.8,2-0.9,2.8-0.2c0.8,0.7,0.9,2,0.2,2.8
				c-2,2.2-2.7,5.2-2,8c0.3,1.1-0.4,2.2-1.4,2.4C827.6,1005.8,827.5,1005.8,827.3,1005.8z"/>
		</g>
		<g>
			<path d="M918.8,1005.8c-0.9,0-1.7-0.6-1.9-1.5c-1.1-4.1,0-8.4,2.8-11.6c0.7-0.8,2-0.9,2.8-0.2c0.8,0.7,0.9,2,0.2,2.8
				c-2,2.2-2.7,5.2-2,8c0.3,1.1-0.4,2.2-1.4,2.4C919.1,1005.8,919,1005.8,918.8,1005.8z"/>
		</g>
	</g>
	<g>
		<rect x="970.2" y="835.4" class="st1" width="251.3" height="169.6"/>
		<g>
			<path d="M1221.3,1006.8c-0.4,0-0.8-0.1-1.1-0.3L969.3,837.3c-0.9-0.6-1.2-1.9-0.5-2.8c0.6-0.9,1.9-1.2,2.8-0.5l250.9,169.2
				c0.9,0.6,1.2,1.9,0.5,2.8C1222.6,1006.5,1221.9,1006.8,1221.3,1006.8z"/>
		</g>
		<g>
			<path d="M970.4,1006.8c-0.6,0-1.3-0.3-1.7-0.9c-0.6-0.9-0.4-2.2,0.5-2.8l250.9-169.2c0.9-0.6,2.2-0.4,2.8,0.5
				c0.6,0.9,0.4,2.2-0.5,2.8l-250.9,169.2C971.2,1006.7,970.8,1006.8,970.4,1006.8z"/>
		</g>
	</g>
</g>
<g id="box">
	<rect x="665.4" y="482.4" class="st2" width="173.2" height="226.3"/>
	<rect x="574.9" y="482.4" class="st2" width="90.5" height="226.3"/>
	<polygon class="st3" points="687.8,440 665.4,482.4 838.6,482.4 861,440 	"/>
	<polygon class="st3" points="552.4,440 574.9,482.4 665.4,482.4 642.9,440 	"/>
	<g>
		<path d="M780.8,661.8c-0.4,0-0.8-0.1-1.1-0.3c-0.6-0.4-1-1.2-0.9-1.9l4.3-31.4l-29-12.9c-0.7-0.3-1.2-1-1.2-1.7
			c0-0.8,0.4-1.5,1-1.8l83.7-46.5c1-0.5,2.2-0.2,2.7,0.8c0.5,1,0.2,2.2-0.8,2.7l-80.2,44.6l26.7,11.9c0.8,0.4,1.3,1.2,1.2,2.1
			l-4,28.9l54.3-30.2c1-0.5,2.2-0.2,2.7,0.8c0.5,1,0.2,2.2-0.8,2.7l-57.8,32.1C781.5,661.7,781.1,661.8,780.8,661.8z"/>
	</g>
	<g>
		<path d="M665.4,711.6c-1.1,0-2-0.9-2-2V482.4c0-1.1,0.9-2,2-2s2,0.9,2,2v227.2C667.4,710.7,666.5,711.6,665.4,711.6z"/>
	</g>
</g>
<g id="man">
	<path d="M370.6,1005c-34.4-0.9-33.5-57.4-33.5-58v-0.2l0.2,0.1c0.1,0,13.4,3,34.2,9.5h0.1v0.1c0.1,0.2,6.6,17,6.6,30.7
		C378.3,1003.8,371,1005,370.6,1005L370.6,1005L370.6,1005z"/>
	<path d="M660.8,863.1L660.8,863.1c9.2-2.7,18.5-5.1,28.1-5.2c11.7,0,16.2,2.6,17.9,4.4c0.8,0.9,2,5,2,5
		c-3.8,28.8-52.7,33.3-53.2,33.3h-0.3L660.8,863.1z"/>
	<path class="st1" d="M230.8,979.9c-1.3,0-2-0.1-2-0.1h-0.2l25.3-166h0.2c31.4,2,62.8,6.6,93.4,13.7l0.1,0.1v0.1
		c0.1,0.9,13.9,90,24,128.8l0.1,0.3l-0.3-0.1c-20.8-6.5-34-9.4-34.2-9.5c-7.2-1.5-16.1-3.4-25.7-3.4c-16.8,0-31.5,6-45.1,18.5
		C249.1,978.2,235.8,979.9,230.8,979.9z"/>
	<path class="st0" d="M370.6,1005c14.4-10.4,0.6-48.8,0.6-48.8c-2.9-8.7-6.4-17.1-10.2-26.1c-5.3-12.8-10.8-26-14.7-40.4
		c-10.7-40,0.8-61.9,0.9-62.1l0.1-0.1h0.1c57.5,13.2,101.4,31.6,122.8,41.6c-3.6-6.9-41.9-79.6-68.9-128.9l-0.1-0.2L575,709.4v0.2
		c0.2,0.8,15.9,79.9,23.6,140.7c6.1,48.2,9.8,107.2-15.7,136.2c-10.8,12.3-26.5,18.5-46.5,18.5L370.6,1005L370.6,1005z"/>
	<g>
		<path d="M245.8,870.6c-1.1,0-2-0.8-2-1.9c0-1.1,0.8-2,1.9-2.1c29-1.1,53.2-21.4,56.3-47.2c0.1-1.1,1.1-1.9,2.2-1.7
			c1.1,0.1,1.9,1.1,1.7,2.2C302.7,847.6,276.8,869.4,245.8,870.6C245.9,870.6,245.8,870.6,245.8,870.6z"/>
	</g>
	<g>
		<path d="M540.8,938.2c-1.3,0-2.5-0.1-3.8-0.3l-185.5-30.2c-1.1-0.2-1.8-1.2-1.7-2.3c0.2-1.1,1.2-1.8,2.3-1.7l185.5,30.2
			c4.1,0.6,8.4,0,12.2-1.8c4.8-2.4,8.4-6.5,10.2-11.6c1.7-5.1,1.4-10.6-1-15.5l-77.4-157.1c-0.5-1-0.1-2.2,0.9-2.7
			c1-0.5,2.2-0.1,2.7,0.9l77.4,157.1c2.9,5.8,3.3,12.4,1.2,18.5c-2.1,6.2-6.4,11.1-12.2,14C548.1,937.3,544.5,938.2,540.8,938.2z"/>
	</g>
	<path class="st1" d="M377.6,648.8l0.1-0.3c2-6.9,4.5-15.1,8-26.6v-0.1H509l3,27L377.6,648.8L377.6,648.8z"/>
	<path class="st1" d="M533.4,1005v-0.2c-3.5-30.8-4-62.1-1.6-93v-0.1l133.9-74.6l-4.5,26.1l-5.4,37.2c-1.9,18.9-4.5,44.9,22.7,68.7
		c11.6,10.2,16.9,19.3,19.2,25.2c2.5,6.4,2.3,10.3,2.3,10.4v0.2L533.4,1005L533.4,1005z"/>
	<path class="st0" d="M542.1,912.8c-6.3,0-10.1-0.7-10.1-0.7h-0.2v-0.2c6.6-84.2,33.3-141.1,35.5-145.7H448.1
		c-28.3,0-50.3-8-63.7-23.1c-12.8-14.5-17.7-34.8-14.5-60.2c1.1-9,3.5-19.3,7.8-34.3v-0.1h134.1c0.6,0,63.4,1,96.4,4.9
		c26.8,3.2,43.8,8.3,56.7,17.2c15.6,10.7,24.9,26.9,29.1,50.9c5.6,31.5,14,113.6,14.8,145.8c-8.4-17.6-47.6-3.8-47.6-3.8
		c-14.7,5.9-19.6,8.7-31,15.5c-7,4.2-16.5,9.9-32.7,18.8C575.3,910.2,555.1,912.8,542.1,912.8z"/>
	<g>
		<path d="M532,913.9c-0.1,0-0.1,0-0.2,0c-1.1-0.1-1.9-1-1.8-2.2c6.9-87.7,35.5-146.1,35.8-146.6c0.5-1,1.7-1.4,2.7-0.9
			s1.4,1.7,0.9,2.7c-0.3,0.6-28.6,58.3-35.4,145.2C533.9,913.1,533,913.9,532,913.9z"/>
	</g>
	<g>
		<path class="st4" d="M437.2,483.2c-10.6,0-19.2-8.6-19.2-19.2s8.6-19.2,19.2-19.2s19.2,8.6,19.2,19.2S447.8,483.2,437.2,483.2z"/>
		<g>
			<path d="M437.2,446.8c9.5,0,17.2,7.7,17.2,17.2s-7.7,17.2-17.2,17.2S420,473.5,420,464S427.7,446.8,437.2,446.8 M437.2,442.8
				c-11.7,0-21.2,9.5-21.2,21.2s9.5,21.2,21.2,21.2s21.2-9.5,21.2-21.2S449,442.8,437.2,442.8L437.2,442.8z"/>
		</g>
	</g>
	<g>
		<path d="M434.6,469.2c-0.6,0-1.3-0.3-1.7-0.9c-0.6-0.9-0.4-2.2,0.6-2.8l12.5-8.3c0.9-0.6,2.2-0.4,2.8,0.6c0.6,0.9,0.4,2.2-0.6,2.8
			l-12.5,8.3C435.4,469.1,435,469.2,434.6,469.2z"/>
	</g>
	<g>
		<path class="st4" d="M475.5,482.7c-9,0-17.5-5.6-24.6-16.2c-25.2-37.3-21.5-54.1-7.4-69c0.1-0.1,17-17,37.8-17
			c3.9,0,7.7,0.6,11.3,1.7c14.6,4.5,21.8,29.8,16.7,59C505.1,465.6,491.2,482.7,475.5,482.7z"/>
		<path d="M481.3,382.5c3.7,0,7.3,0.5,10.7,1.6c13.4,4.1,20.1,29,15.3,56.7c-2,11.8-6.5,22.2-12.6,29.5
			c-5.7,6.7-12.5,10.4-19.2,10.4c-8.3,0-16.2-5.3-23-15.3c-24.5-36.2-21.1-52.3-7.6-66.5C445.5,398.2,461.5,382.5,481.3,382.5
			 M481.3,378.5c-22,0-39.3,17.6-39.3,17.6c-15.9,16.8-17.2,35.4,7.2,71.5c8,11.9,17.3,17.1,26.3,17.1c16.2,0,31.3-17.1,35.8-43.2
			c5.3-30.7-2.8-56.5-18.1-61.2C489.1,379,485.1,378.5,481.3,378.5L481.3,378.5z"/>
	</g>
	<path d="M442,396.1c-13.8,14.6-16.6,30.6-1.1,58.1c26.3-17.1,17.5-56.5,17.5-56.5c27.5,13.8,52.7,7.6,52.7,7.6
		c-2.9-13.1-9.3-22.4-17.9-25C465.8,371.8,442,396.1,442,396.1z"/>
	<g>
		<path d="M492.3,441.9c-0.6,0-1.2-0.3-1.6-0.8c-0.7-0.9-0.5-2.1,0.4-2.8c0.9-0.7,1.7-1.7,2-2.7c0.8-2.2-0.7-8.3-2.3-13.9
			c-0.3-1.1,0.3-2.2,1.4-2.5c1.1-0.3,2.2,0.3,2.5,1.4c2.6,9.3,3.2,13.6,2.3,16.3c-0.6,1.8-1.8,3.5-3.4,4.6
			C493.1,441.8,492.7,441.9,492.3,441.9z"/>
	</g>
	<g>
		<path d="M479.4,430.7c-1,0-1.8-0.7-2-1.7l-0.3-2.2c-0.1-1.1,0.6-2.1,1.7-2.3c1.1-0.1,2.1,0.6,2.3,1.7l0.3,2.2
			c0.1,1.1-0.6,2.1-1.7,2.3C479.6,430.7,479.5,430.7,479.4,430.7z"/>
	</g>
	<g>
		<path d="M502.4,421.6c-1,0-1.8-0.7-2-1.7l-0.3-2.1c-0.2-1.1,0.6-2.1,1.7-2.3c1.1-0.2,2.1,0.6,2.3,1.7l0.3,2.1
			c0.2,1.1-0.6,2.1-1.7,2.3C502.6,421.6,502.5,421.6,502.4,421.6z"/>
	</g>
	<g>
		<path d="M485.9,454.1c-4.3,0-8.1-3-9-7.3c-0.2-1.1,0.5-2.1,1.5-2.4c1.1-0.2,2.1,0.5,2.4,1.5c0.6,2.8,3.2,4.5,6,4.1l0.1,0
			c0.2-0.1,0.5-0.1,0.7-0.2c1-0.5,2.2-0.1,2.7,0.9c0.5,1,0.1,2.2-0.9,2.7c-0.5,0.3-1.1,0.4-1.5,0.5l-0.2,0c0,0-0.1,0-0.1,0
			C487,454.1,486.4,454.1,485.9,454.1z"/>
	</g>
	<g>
		<path class="st4" d="M540.9,664.8c-39.7,0-60.9-41.8-61.8-43.6c-6.2-12-12.1-24.9-17.3-38.4L454,558l68.9-33.9l13.7,25.1
			c6.9,14.6,10.8,23.5,11.4,25c0.2,0.5,0.6,0.9,1.1,1.1c0.2,0.1,0.5,0.1,0.7,0.1c0.3,0,0.6-0.1,0.8-0.2l2.2-1
			c112.4-51.8,133.5-59.9,136-60.1l0,0c0.1,0,0.2,0,0.3,0c1.2,0.3,1.9,1,2.3,1.9c0.8,2.1-0.3,5.4-3.1,9.2c-0.5,0.7-0.5,1.6-0.1,2.3
			c0.4,0.6,1,0.9,1.7,0.9c0.1,0,0.3,0,0.4-0.1l0.8-0.2c14.9-3.4,26.1-5.4,33.4-5.8h1c3.2,0,5.5,0.8,6.9,2.4c1.8,2.1,1.5,4.9,1.4,5.4
			c-0.1,0.9,0.4,1.8,1.3,2.1c2.2,0.9,3.5,2,3.9,3.5c0.7,2.4-1.1,5.6-2.2,6.9c-0.3,0.4-0.5,1-0.4,1.5s0.4,1,0.8,1.3
			c1.1,0.8,1.7,2,1.7,3.3c-0.2,2.4-2.4,5-6,6.7c-3.3,1.6-8.8,3.1-14.7,4.7c-4.2,1-15.1,4.2-19,5.4c-0.9,0.3-1.5,1.2-1.4,2.2
			c0.2,1,1,1.7,2,1.7h5.6c25.1,0,27.4,3.1,27.5,4c0.4,3.7-3.5,4.7-14.8,6.5l-0.6,0.1c-11.3,1.8-26.8,4.3-43.4,13.7
			c-12,6.8-25.1,16-37.8,24.9c-28.6,20-60.9,42.7-89.5,45.7C545.1,664.7,543,664.8,540.9,664.8z"/>
		<path d="M689,516.1c0.5,0.2,0.6,0.5,0.7,0.6c0.4,1-0.1,3.5-2.9,7.2c-1,1.3-1.1,3.2-0.2,4.6c0.7,1.2,2,1.8,3.4,1.8
			c0.3,0,0.6,0,0.9-0.1l0.8-0.2c14.8-3.4,25.9-5.3,33-5.7h1c3.9,0,5,1.3,5.4,1.7c1.2,1.5,1,3.7,1,3.9c-0.2,1.8,0.8,3.6,2.5,4.2
			c1.5,0.6,2.5,1.3,2.7,2.1c0.4,1.5-0.9,3.9-1.8,5.2c-0.7,0.9-1,2-0.8,3c0.2,1.1,0.8,2,1.6,2.7c0.6,0.4,0.8,0.9,0.8,1.5
			c-0.1,1.4-1.6,3.5-4.8,5c0,0,0,0-0.1,0c-3.1,1.5-8.7,3-14.2,4.5c-4.3,1.1-15.3,4.2-19.1,5.5c-1.9,0.6-3,2.5-2.7,4.4s2,3.4,4,3.4
			h2.5h3.1c4.7,0,10.8,0.1,16.1,0.6c6.6,0.7,8.8,1.7,9.5,2.2c0,0.4-0.3,0.8-1.6,1.3c-2.4,1-6.7,1.7-11.6,2.5H718l-0.4,0.1
			c-11.4,1.8-27.1,4.4-44.1,13.9c-12.1,6.9-25.2,16.1-37.9,25c-28.3,19.9-60.4,42.4-88.5,45.4c-2.1,0.2-4.1,0.3-6.1,0.3
			c-38.5,0-59.2-40.7-60-42.5c0,0,0,0,0-0.1c-6.2-11.9-12-24.7-17.2-38.1l-7.2-23.1l65.7-32.3l12.7,23.3
			c6.8,14.5,10.8,23.4,11.4,24.8c0.4,1,1.2,1.8,2.2,2.2c0.5,0.2,1,0.3,1.5,0.3c0.6,0,1.1-0.1,1.7-0.4l2.2-1
			C662.3,526,685.3,516.9,689,516.1 M689.1,512c-0.1,0.1-0.1,0.1-0.2,0.1c-6,0-116.4,50.9-139,61.3c-0.7-1.7-4.8-10.9-11.5-25.1
			l-14.6-26.8L451.6,557l8.3,26.5c5.1,13.1,10.9,26.1,17.4,38.6c0.2,0.4,22,44.7,63.6,44.7c2.1,0,4.3-0.1,6.5-0.3
			c29.1-3.1,61.6-25.9,90.4-46.1c13.4-9.4,26-18.2,37.6-24.8c16.5-9.3,31.9-11.7,43.1-13.5c10.8-1.7,17.4-2.7,16.7-8.7
			c-0.6-5.5-18.9-5.8-29.5-5.8c-1.1,0-2.1,0-3.1,0s-1.8,0-2.5,0c4-1.3,14.8-4.4,18.9-5.4c6-1.6,11.6-3.1,15-4.8
			c4.2-2,6.9-5.2,7.1-8.4c0.1-2-0.8-3.8-2.5-5c0.7-0.9,3.5-5,2.5-8.7c-0.6-2.1-2.3-3.7-5.1-4.8c0.1-0.8,0.4-4.3-1.9-7
			c-1.8-2.1-4.6-3.1-8.4-3.1c-0.4,0-0.7,0-1.1,0c-11.8,0.6-31.1,5.2-34.6,6c3.3-4.4,4.5-8.3,3.4-11.1
			C692.7,513.5,691.2,512.4,689.1,512L689.1,512z"/>
	</g>
	<path class="st1" d="M385.8,622.3L385.8,622.3c-11.9-9.2-18.9-23.6-18.8-38.6c0-16.9,9.1-36.8,27.2-59.2l1.1-1.4
		c23.2-28.7,45.1-55.9,72-55.9c0.9,0,1.9,0,2.8,0.1c19.3,1.3,33.1,11.1,43.5,30.6c9.5,18,17,33.9,23,46.7l1.8,3.8l-78.5,34.7
		c5.1,13.1,10.9,26.5,17.3,38.9l0.2,0.3H385.8L385.8,622.3L385.8,622.3z"/>
	<g>
		<path d="M479.4,624.1H386c-1.1,0-2-0.9-2-2s0.9-2,2-2h93.4c1.1,0,2,0.9,2,2S480.5,624.1,479.4,624.1z"/>
	</g>
	<g>
		<path d="M500.1,650.6h-122c-1.1,0-2-0.9-2-2s0.9-2,2-2h122c1.1,0,2,0.9,2,2S501.2,650.6,500.1,650.6z"/>
	</g>
	<g>
		<path d="M462.2,585.6c-0.8,0-1.5-0.5-1.9-1.3l-1.7-4.1c-3.5-8.8-8.4-20.8-10.7-27.3c-0.4-1,0.2-2.2,1.2-2.6c1-0.4,2.2,0.2,2.6,1.2
			c2.3,6.4,7.1,18.4,10.6,27.2l1.7,4.1c0.4,1-0.1,2.2-1.1,2.6C462.7,585.6,462.4,585.6,462.2,585.6z"/>
	</g>
	<g>
		<path d="M394.1,650.6c-0.1,0-0.2,0-0.3,0c-1.1-0.2-1.8-1.2-1.6-2.3l4.6-26.5c0.2-1.1,1.2-1.8,2.3-1.6c1.1,0.2,1.8,1.2,1.6,2.3
			l-4.6,26.5C395.9,649.9,395.1,650.6,394.1,650.6z"/>
	</g>
	<g>
		<path d="M420.7,650.6c0,0-0.1,0-0.1,0c-1.1-0.1-1.9-1-1.9-2.1l1.7-26.5c0.1-1.1,1-1.9,2.1-1.9c1.1,0.1,1.9,1,1.9,2.1l-1.7,26.5
			C422.6,649.8,421.7,650.6,420.7,650.6z"/>
	</g>
	<g>
		<path d="M446.3,650.6C446.3,650.6,446.3,650.6,446.3,650.6c-1.2,0-2-0.9-2-2.1L445,622c0-1.1,0.9-2,2.1-1.9c1.1,0,2,0.9,1.9,2.1
			l-0.7,26.5C448.3,649.7,447.4,650.6,446.3,650.6z"/>
	</g>
	<g>
		<path d="M473.8,650.6c-1.1,0-1.9-0.8-2-1.9l-1.3-26.5c-0.1-1.1,0.8-2,1.9-2.1c1.1,0,2,0.8,2.1,1.9l1.3,26.5
			C475.9,649.6,475,650.5,473.8,650.6C473.9,650.6,473.8,650.6,473.8,650.6z"/>
	</g>
	<g>
		<path d="M594.5,768H448.1c-14.1,0-26.7-1.9-37.5-5.7c-1-0.4-1.6-1.5-1.2-2.6c0.4-1,1.5-1.6,2.6-1.2c10.3,3.6,22.5,5.5,36.1,5.5
			h146.4c1.1,0,2,0.9,2,2S595.6,768,594.5,768z"/>
	</g>
	<g>
		<path d="M586.1,1006.8c-1,0-1.8-0.7-2-1.7c-4.5-28.6-27.6-50.2-53.6-50.2c-1.1,0-2-0.9-2-2s0.9-2,2-2c28,0,52.8,23,57.6,53.6
			c0.2,1.1-0.6,2.1-1.7,2.3C586.3,1006.8,586.2,1006.8,586.1,1006.8z"/>
	</g>
	<g>
		<path d="M597.6,899.5c-0.1,0-0.3,0-0.4,0c-1.1-0.2-1.8-1.3-1.5-2.4l34.2-156.3c0.4-1.6,0.6-3.5,0.6-5.3
			c0-13.7-11.2-24.9-24.9-24.9H452c-1.9,0-3.9-0.2-5.8-0.6c-14.2-3.4-23-17.5-19.8-31.6l6.9-30.2c0.2-1.1,1.3-1.8,2.4-1.5
			c1.1,0.2,1.8,1.3,1.5,2.4l-6.9,30.2c-2.7,11.9,4.8,24,16.8,26.8c1.6,0.4,3.3,0.5,4.9,0.5h153.5c15.9,0,28.9,13,28.9,28.9
			c0,2.1-0.2,4.2-0.6,6.1l-34.2,156.3C599.3,898.9,598.5,899.5,597.6,899.5z"/>
	</g>
	<g>
		<path d="M496.1,882.9c-0.3,0-0.6-0.1-0.9-0.2c-7.7-3.9-25-11.2-25.2-11.2c-1-0.4-1.5-1.6-1.1-2.6c0.4-1,1.6-1.5,2.6-1.1
			c0.7,0.3,17.6,7.4,25.4,11.4c1,0.5,1.4,1.7,0.9,2.7C497.5,882.5,496.8,882.9,496.1,882.9z"/>
	</g>
	<g>
		<path d="M628,943.8c-0.9,0-1.8-0.7-2-1.6c-0.2-1.1,0.5-2.1,1.6-2.3l28.8-5.6c1.1-0.2,2.1,0.5,2.3,1.6c0.2,1.1-0.5,2.1-1.6,2.3
			l-28.8,5.6C628.3,943.8,628.1,943.8,628,943.8z"/>
	</g>
	<g>
		<path d="M643.7,974.3c-0.6,0-1.2-0.3-1.6-0.8c-0.6-0.9-0.4-2.1,0.5-2.8l22.6-16.1c0.9-0.6,2.1-0.4,2.8,0.5
			c0.6,0.9,0.4,2.1-0.5,2.8l-22.6,16.1C644.5,974.2,644.1,974.3,643.7,974.3z"/>
	</g>
	<g>
		<path d="M653.9,938.3c-0.8,0-1.6-0.5-1.9-1.3c-0.3-0.9,0-1.9,0.8-2.4l75.2-48.7c1.7-1,3-1.7,4.4-2.2c11.4-4.2,24.2,1.7,28.4,13.2
			c0.6,1.8,1,3.3,1.2,4.7c0.8,5.9-0.8,11.7-4.4,16.4c-3.6,4.7-8.8,7.7-14.7,8.5l-88.8,11.7C654.1,938.3,654,938.3,653.9,938.3z
			 M740,886.4c-2.1,0-4.2,0.4-6.2,1.1c-1.1,0.4-2.2,1-3.6,1.8l-67.7,43.9l80-10.5c4.8-0.7,9.1-3.1,12.1-7c3-3.9,4.2-8.6,3.6-13.5
			c-0.2-1.2-0.5-2.4-1-3.9C754.4,890.9,747.4,886.4,740,886.4z"/>
	</g>
	<g>
		<path d="M721.5,977.3c-0.9,0-1.8-0.7-2-1.6c-7.5-39.1-64.9-37.2-65.5-37.2c-1.1,0-2-0.8-2.1-1.9c0-1.1,0.8-2,1.9-2.1
			c0.6,0,15.4-0.6,31.4,4c21.6,6.2,34.7,18.8,38.1,36.4c0.2,1.1-0.5,2.1-1.6,2.3C721.7,977.3,721.6,977.3,721.5,977.3z"/>
	</g>
	<g>
		<path d="M316.4,1056.5c-0.4,0-0.8,0-1.3,0c-5.8-0.3-11.3-2.8-15.2-7.2c-4-4.4-6-10.1-5.7-16.1l4.7-89.5c0-0.9,0.7-1.7,1.7-1.9
			c0.9-0.2,1.8,0.3,2.2,1.2l34.2,82.8c0.6,1.6,1,3.1,1.3,4.7c1,5.9-0.3,11.8-3.7,16.6c-3.4,4.8-8.5,8-14.4,9.1
			C318.9,1056.4,317.7,1056.5,316.4,1056.5z M302.4,952.7l-4.2,80.7c-0.3,4.9,1.4,9.5,4.7,13.2c3.3,3.6,7.7,5.7,12.5,5.9
			c1.4,0.1,2.7,0,4-0.3c4.9-0.8,9-3.5,11.8-7.4c2.8-4,3.9-8.8,3.1-13.6c-0.3-1.3-0.6-2.6-1.1-4L302.4,952.7z"/>
	</g>
	<g>
		<path d="M250.3,1005.1c-1.1,0-2-0.9-2-2c0-1.1,0.9-2,2-2c38.4-0.2,47.7-53.2,48.4-57.3l-3.3-27.2c-0.1-1.1,0.7-2.1,1.7-2.2
			c1.1-0.1,2.1,0.7,2.2,1.7l3.3,27.5c0,0.2,0,0.3,0,0.5c-0.1,0.6-2.2,15.3-9.6,30.2C283.1,994.4,268.3,1005,250.3,1005.1
			C250.3,1005.1,250.3,1005.1,250.3,1005.1z"/>
	</g>
	<g>
		<path d="M282.9,952.5c-0.7,0-1.3-0.3-1.7-0.9l-14-22.4c-0.6-0.9-0.3-2.2,0.6-2.8s2.2-0.3,2.8,0.6l14,22.4c0.6,0.9,0.3,2.2-0.6,2.8
			C283.6,952.4,283.3,952.5,282.9,952.5z"/>
	</g>
	<g>
		<path d="M666.4,537.5c-0.8,0-1.6-0.5-1.9-1.4c-0.3-1,0.2-2.2,1.3-2.5c11.7-3.9,24.2-7.1,24.3-7.1c1.1-0.3,2.2,0.4,2.4,1.4
			c0.3,1.1-0.4,2.2-1.4,2.4c-0.1,0-12.5,3.2-24.1,7.1C666.8,537.5,666.6,537.5,666.4,537.5z"/>
	</g>
	<g>
		<path d="M682.1,546.4c-0.9,0-1.7-0.6-1.9-1.4c-0.3-1.1,0.3-2.2,1.4-2.5c23.5-6.8,51.1-12.8,51.3-12.8c1.1-0.2,2.1,0.5,2.4,1.5
			c0.2,1.1-0.5,2.1-1.5,2.4c-0.3,0.1-27.7,6-51.1,12.8C682.5,546.4,682.3,546.4,682.1,546.4z"/>
	</g>
	<g>
		<path d="M687,559.1c-0.8,0-1.6-0.5-1.9-1.4c-0.3-1,0.2-2.2,1.3-2.5c16.2-5.4,32.8-9.7,49.2-12.9c1.1-0.2,2.1,0.5,2.3,1.6
			c0.2,1.1-0.5,2.1-1.6,2.3c-16.2,3.1-32.6,7.4-48.6,12.7C687.4,559.1,687.2,559.1,687,559.1z"/>
	</g>
</g>
<g id="clothes">
	<path class="st1" d="M875.9,274.7h139.7c19.6,0,35.4,15.9,35.4,35.4l0,0c0,19.6-15.9,35.4-35.4,35.4H875.9
		c-19.6,0-35.4-15.9-35.4-35.4l0,0C840.5,290.6,856.4,274.7,875.9,274.7z"/>
	<path class="st1" d="M875.9,345.5h139.7c19.6,0,35.4,15.9,35.4,35.4l0,0c0,19.6-15.9,35.4-35.4,35.4H875.9
		c-19.6,0-35.4-15.9-35.4-35.4l0,0C840.5,361.3,856.4,345.5,875.9,345.5z"/>
	<g>
		<path d="M945.8,418.4c-1.1,0-2-0.9-2-2V274.7c0-1.1,0.9-2,2-2s2,0.9,2,2v141.7C947.8,417.5,946.9,418.4,945.8,418.4z"/>
	</g>
	<g>
		<path d="M945.6,278.5c0,0-0.1,0-0.2,0c-0.9-0.1-1.7-0.8-1.8-1.7l-13.1-88.6c-0.3-1.5-0.4-3-0.2-5c1-12.2,11.7-21.3,23.8-20.5
			c1.5,0.1,3.1,0.4,4.8,0.9c5.7,1.7,10.4,5.5,13.1,10.7c2.8,5.2,3.4,11.3,1.6,17l-26.2,85.7C947.3,277.9,946.5,278.5,945.6,278.5z
			 M952.5,166.7c-9.4,0-17.5,7.3-18.3,16.8c-0.1,1.6-0.1,2.8,0.2,3.9c0,0,0,0.1,0,0.1l11.8,79.8l23.6-77.2c1.4-4.7,1-9.6-1.3-13.9
			c-2.3-4.3-6.1-7.4-10.7-8.8c-1.4-0.4-2.7-0.6-4-0.7C953.4,166.8,953,166.7,952.5,166.7z"/>
	</g>
	<g>
		<path d="M945.7,277.1c-0.3,0-0.6-0.1-0.9-0.2l-63-31.3c-1-0.5-2-1.2-3.2-2.1c-7.6-6.2-8.8-17.4-2.7-25.1c0.9-1.3,2-2.2,2.9-2.9
			c3.8-2.9,8.4-4.2,13.2-3.7c4.7,0.6,9,3,11.9,6.7l43.4,55.3c0.6,0.7,0.6,1.8,0,2.5C946.9,276.8,946.3,277.1,945.7,277.1z
			 M889.8,215.7c-3.1,0-6.1,1-8.5,3c-0.7,0.5-1.5,1.2-2.1,2.1c0,0-0.1,0.1-0.1,0.1c-4.8,6-3.9,14.7,2,19.5c1,0.7,1.8,1.3,2.5,1.7
			l55.1,27.4L900.7,221c-2.3-2.9-5.6-4.8-9.3-5.2C890.9,215.8,890.3,215.7,889.8,215.7z"/>
	</g>
	<g>
		<path d="M946.2,277c-0.5,0-0.9-0.2-1.3-0.5c-0.8-0.7-0.9-2-0.2-2.8c0.4-0.5,10.2-11.6,24.6-20.1c19.3-11.4,37.6-12.3,52.7-2.5
			c0.9,0.6,1.2,1.8,0.6,2.8c-0.6,0.9-1.8,1.2-2.8,0.6c-33.6-21.6-71.7,21.4-72.1,21.8C947.3,276.8,946.8,277,946.2,277z"/>
	</g>
</g>
<g id="woman">
	<path d="M1022.4,835.8l-7.7-41.3l0.1-0.1c18.5-21.2,41.4-29.6,56.6-30.5h0.2v0.2c-1,23.9-3.9,48-8.5,71.5v0.2L1022.4,835.8
		L1022.4,835.8z"/>
	<path d="M949.7,731.5c-0.5,0-51-2.5-51-31c6.8-12.5,26-14.4,36.8-14.4c4.1,0,6.9,0.3,7,0.3h0.1v0.1c0,0,0.7,3.6,1.1,5.6
		c2.2,10.9,5,26.5,6.1,39.1v0.2L949.7,731.5z"/>
	<path d="M1308.7,907.4c-0.1-0.3-5.9-27.1-11.4-44.9v-0.2l0.1-0.1c0.1-0.1,14.6-8.3,29.2-10.2c1.9-0.3,3.8-0.4,5.5-0.4
		c13.9,0,17.3,8.3,17.4,8.4c0.1,0.2,5.4,21.1-40.4,47.5l-0.2,0.1L1308.7,907.4z"/>
	<path d="M1250.6,443.9L1250.6,443.9c0.2-0.2,2.8-2.8,17.8-13.9c6.6-4.9,12.9-7.4,18.6-7.4c6.6,0,10.1,3.4,10.2,3.5s4,8.1,1.8,19.5
		c-3.7,19-21.2,32.7-35.3,40.8l-0.2,0.1L1250.6,443.9z"/>
	<path class="st3" d="M1156.2,1005v-0.2c0-0.1-0.8-13.1,14.8-29.7c13.7-14.6,26.9-33.5,20.6-63.8v-0.1l104.6-53.3l0.1,0.2
		c5.8,17.5,12.7,48.9,12.8,49.2c0,0.1,2.1,10.6,4.5,25.8v0.2h-0.2c-15.3,3.7-52.7,18.1-70.3,71.5v0.1L1156.2,1005L1156.2,1005z"/>
	<path d="M1313.6,933.1L1313.6,933.1l-0.2-0.1c-18.6,4.5-34.7,14.7-47.8,30.3l-0.1,0.1l13.8,41.6v-0.1h39.6v-0.2
		C1318.9,986.5,1316.8,953.3,1313.6,933.1z"/>
	<path class="st2" d="M1197.2,911.9c-3.5,0-5.5-0.3-5.5-0.3h-0.1v-0.1c-2.5-12.3-11.1-33.2-22-59.5c-13.9-33.8-31.3-75.9-41.9-115.6
		c-9.7-36.1-14.2-92-16.4-132.5c-2.3-43.9-2.3-79.7-2.3-80.1v-0.2l141.1,11.8v0.2c-0.2,20.5-0.8,38.8-1.5,56.6
		c-2.5,70.8-4.1,117.6,29,161.7c11.8,15.7,21.9,28.4,30.8,39.5c22.1,27.6,36.1,48.9,41.1,66.7c0.1,0.2-10-18.6-52.2,2.7
		c-13.1,7.2-22.4,13.6-31.4,19.8c-10,6.9-19.4,13.4-32.7,20C1217.2,910.7,1203.8,911.9,1197.2,911.9z"/>
	<g>
		<path d="M1216.4,939.9h-24.1c-1.1,0-2-0.9-2-2s0.9-2,2-2h24.1c1.1,0,2,0.9,2,2S1217.5,939.9,1216.4,939.9z"/>
	</g>
	<g>
		<path d="M1208.5,966.5c-0.3,0-0.6-0.1-0.8-0.2l-21.9-10.1c-1-0.5-1.4-1.7-1-2.7c0.5-1,1.7-1.4,2.7-1l21.9,10.1
			c1,0.5,1.4,1.7,1,2.7C1210,966.1,1209.3,966.5,1208.5,966.5z"/>
	</g>
	<g>
		<path d="M1239.1,901.4c-0.9,0-1.7-0.6-1.9-1.5l-12.9-53c-0.1-0.5,0-1.1,0.2-1.5c0.3-0.5,0.7-0.8,1.3-0.9L1283,832l-57.3-13.1
			c-0.6-0.1-1.2-0.6-1.4-1.2s-0.2-1.3,0.2-1.8l27.4-43.7l-50.3,27.8c-0.5,0.3-1.2,0.3-1.8,0.1c-0.6-0.2-1-0.7-1.1-1.3l-16.1-63.5
			l-9.5,76.1c-0.1,0.6-0.4,1.1-0.9,1.4c-0.5,0.3-1.1,0.4-1.7,0.3l-20.6-5.9c-1.1-0.3-1.7-1.4-1.4-2.5c0.3-1.1,1.4-1.7,2.5-1.4
			l18.4,5.3l10.5-84.3c0.1-1,0.9-1.7,1.9-1.7c1-0.1,1.8,0.6,2.1,1.5l18.1,71.3l54.8-30.2c0.8-0.4,1.8-0.3,2.4,0.4
			c0.6,0.7,0.7,1.7,0.2,2.4l-30,47.8l63.3,14.5c0.9,0.2,1.6,1,1.6,2s-0.7,1.7-1.6,1.9l-64,14l12.4,51c0.3,1.1-0.4,2.2-1.5,2.4
			C1239.4,901.4,1239.3,901.4,1239.1,901.4z"/>
	</g>
	<g>
		<path d="M1226.1,907.6c-0.6,0-1.2-0.3-1.6-0.7l-27.8-34.6l-11.4,15.4c-0.7,0.9-1.9,1.1-2.8,0.4c-0.9-0.7-1.1-1.9-0.4-2.8
			l12.9-17.5c0.4-0.5,0.9-0.8,1.6-0.8c0.6,0,1.2,0.3,1.6,0.7l29.4,36.6c0.7,0.9,0.6,2.1-0.3,2.8
			C1227,907.5,1226.5,907.6,1226.1,907.6z"/>
	</g>
	<g>
		<path d="M1129.3,743.5c-0.5,0-0.9-0.2-1.3-0.5c-0.8-0.7-1-2-0.3-2.8l39.5-47.6l-47,6.1c-1.1,0.1-2.1-0.6-2.2-1.7
			c-0.1-1.1,0.6-2.1,1.7-2.2l52.1-6.8c0.8-0.1,1.6,0.3,2,1c0.4,0.7,0.3,1.6-0.2,2.2l-42.8,51.5
			C1130.4,743.3,1129.9,743.5,1129.3,743.5z"/>
	</g>
	<g>
		<path d="M1221.3,726.4c-0.1,0-0.2,0-0.3,0c-0.9-0.1-1.6-0.9-1.7-1.8l-5.8-67.2l-71.1-3.8c-0.9,0-1.7-0.7-1.9-1.6
			c-0.2-0.9,0.3-1.8,1.1-2.2l65.1-30.2l-24.2-20.6c-0.8-0.7-0.9-2-0.2-2.8s2-0.9,2.8-0.2l26.6,22.6c0.5,0.4,0.8,1.1,0.7,1.8
			s-0.5,1.3-1.1,1.5l-60.6,28.1l64.8,3.5c1,0.1,1.8,0.8,1.9,1.8l5.2,60.8l23.5-55.6c0.4-1,1.6-1.5,2.6-1.1c1,0.4,1.5,1.6,1.1,2.6
			l-26.6,63C1222.8,725.9,1222.1,726.4,1221.3,726.4z"/>
	</g>
	<path class="st3" d="M896.4,835.8v-0.2c0-0.1-0.7-15.1,26.6-35.6c27-20.3,28.5-46.1,26.5-68.7c-1.1-12.6-4-28.2-6.1-39.1
		c-0.4-2.1-0.8-4-1.1-5.6v-0.1l57.7-61.8l72.1,113.4v0.1c0.1,8.5-0.1,17.2-0.5,25.9v0.2h-0.2c-13.7,0.8-29.2,7.1-42.3,17.2
		c-16.7,12.9-29.5,31.6-36.9,54.2v0.1L896.4,835.8L896.4,835.8z"/>
	<circle cx="1236.3" cy="264.6" r="38.6"/>
	<circle cx="1312.5" cy="264.6" r="38.6"/>
	<g>
		<path class="st4" d="M1199.1,313c-10.6,0-19.2-8.6-19.2-19.2s8.6-19.2,19.2-19.2s19.2,8.6,19.2,19.2S1209.7,313,1199.1,313z"/>
		<g>
			<path d="M1199.1,276.6c9.5,0,17.2,7.7,17.2,17.2s-7.7,17.2-17.2,17.2s-17.2-7.7-17.2-17.2S1189.6,276.6,1199.1,276.6
				 M1199.1,272.6c-11.7,0-21.2,9.5-21.2,21.2s9.5,21.2,21.2,21.2s21.2-9.5,21.2-21.2S1210.8,272.6,1199.1,272.6L1199.1,272.6z"/>
		</g>
	</g>
	<g>
		<path d="M1201.8,299c-0.4,0-0.8-0.1-1.1-0.3l-12.6-8.3c-0.9-0.6-1.2-1.8-0.6-2.8c0.6-0.9,1.8-1.2,2.8-0.6l12.6,8.3
			c0.9,0.6,1.2,1.8,0.6,2.8C1203.1,298.7,1202.4,299,1201.8,299z"/>
	</g>
	<g>
		<path class="st4" d="M1160.9,312.5c-15.7,0-29.6-17.1-33.8-41.5c-5-29.1,2.2-54.4,16.7-59c3.6-1.1,7.4-1.7,11.3-1.7
			c18.4,0,33.5,12.9,37.7,16.9c0.1,0.1,0.1,0.1,0.2,0.2c8.2,8.7,11.6,17,10.9,26.9c-0.7,11.2-6.6,24.5-18.4,42
			C1178.4,306.9,1169.9,312.5,1160.9,312.5z"/>
		<g>
			<path d="M1155.1,212.3c17.7,0,32.3,12.5,36.3,16.3c0,0,0.1,0.1,0.2,0.2c13.4,14.2,16.7,30.3-7.7,66.4c-6.7,10-14.7,15.3-23,15.3
				c-6.7,0-13.6-3.7-19.2-10.4c-6.1-7.2-10.6-17.7-12.6-29.5c-2.4-14.1-2-27.8,1.2-38.4c3-9.8,8-16.3,14.2-18.3
				C1147.8,212.8,1151.4,212.3,1155.1,212.3 M1155.1,208.3c-3.8,0-7.8,0.5-11.9,1.8c-15.4,4.8-23.4,30.6-18.1,61.2
				c4.5,26.1,19.6,43.2,35.8,43.2c9,0,18.3-5.2,26.3-17.1c24.4-36.1,23.1-54.7,7.2-71.5C1194.3,225.9,1177.1,208.3,1155.1,208.3
				L1155.1,208.3z"/>
		</g>
	</g>
	<path d="M1194.3,225.9c13.8,14.6,16.6,30.6,1.1,58.1c-26.3-17.1-17.5-56.5-17.5-56.5c-27.5,13.8-52.7,7.6-52.7,7.6
		c2.9-13.1,9.3-22.4,17.9-25C1170.5,201.6,1194.3,225.9,1194.3,225.9z"/>
	<g>
		<path d="M1144.1,271.7c-0.4,0-0.8-0.1-1.2-0.4c-1.6-1.2-2.8-2.8-3.4-4.7c-0.9-2.7-0.4-7,2.3-16.3c0.3-1.1,1.4-1.7,2.5-1.4
			c1.1,0.3,1.7,1.4,1.4,2.5c-1.6,5.6-3.1,11.7-2.3,13.9c0.4,1.1,1.1,2.1,2,2.8c0.9,0.7,1.1,1.9,0.4,2.8
			C1145.3,271.4,1144.7,271.7,1144.1,271.7z"/>
	</g>
	<g>
		<path d="M1156.9,260.4c-0.1,0-0.2,0-0.3,0c-1.1-0.2-1.9-1.2-1.7-2.3l0.3-2.1c0.2-1.1,1.2-1.9,2.3-1.7c1.1,0.2,1.9,1.2,1.7,2.3
			l-0.3,2.1C1158.7,259.7,1157.9,260.4,1156.9,260.4z"/>
	</g>
	<g>
		<path d="M1134,251.4c-0.1,0-0.2,0-0.3,0c-1.1-0.1-1.9-1.2-1.7-2.3l0.3-2.2c0.1-1.1,1.2-1.9,2.3-1.7c1.1,0.1,1.9,1.2,1.7,2.3
			l-0.3,2.2C1135.8,250.7,1135,251.4,1134,251.4z"/>
	</g>
	<g>
		<path d="M1150.4,283.9c-0.6,0-1.1,0-1.7-0.2c0,0-0.1,0-0.1,0l-0.2,0c-0.4-0.1-1-0.2-1.5-0.5c-1-0.5-1.4-1.7-0.9-2.7
			c0.5-1,1.7-1.4,2.7-0.9c0.1,0.1,0.4,0.1,0.7,0.2l0.1,0c2.8,0.5,5.5-1.3,6-4.1c0.2-1.1,1.3-1.8,2.4-1.5c1.1,0.2,1.8,1.3,1.5,2.4
			C1158.5,281,1154.7,283.9,1150.4,283.9z"/>
	</g>
	<path class="st2" d="M1269.8,513.7c-1.9-15.5-7.4-33-18.3-67.9c-1.4-4.6-2.9-9.4-4.5-14.6l-0.1-0.2l-118.2,39.4
		c-0.6,0.1-65.4,5-110.2,12.8c-24.8,4.4-40.8,10-53.5,18.9c-13.8,9.6-23.7,23.3-32.2,44.2c-9.5,23.4-18.2,69.7-26,110.6
		c-2.6,13.9-7,33.4-8.1,43.6c10.6-16.4,38.7-14.4,44.1-13.7c25.2,4.9,43.9,16.6,60.3,27c8.4,5.3,16.5,10.4,24.3,13.7
		c22.8,9.7,35.5,11.1,41,11.1c2.4,0,3.5-0.2,3.5-0.2h0.2v-0.2c-0.7-80.8-21.4-136.8-23.1-141.2h142.6c28.3,0,50.3-8,63.7-23.1
		C1268.1,559.4,1273,539.2,1269.8,513.7z"/>
	<g>
		<path class="st4" d="M1096.3,497.6c-1.5,0-3.1-0.1-4.8-0.2c-33.2-2.8-64.2-34.7-91.5-62.8l-0.3-0.3c-11.3-11.6-21.9-22.5-32.2-31
			c-15-12.4-30.4-17.4-41.6-21l-0.2-0.1c-10.9-3.5-14.6-5-13.6-8.5c0.2-0.8,2.3-2,8.8-2c7.3,0,17.3,1.9,20.6,2.5
			c0.4,0.1,0.7,0.1,0.9,0.2c0.1,0,0.2,0,0.3,0c0.8,0,1.6-0.5,1.9-1.4c0.3-0.9-0.1-2-1-2.4l-1-0.5l-0.5-0.2
			c-5.4-2.6-22-10.6-26.8-13.9c-3.2-2.4-5-5.3-4.7-7.7c0.2-1.4,1-2.4,2.2-2.9c0.5-0.2,0.9-0.6,1.1-1.1c0.2-0.5,0.2-1.1-0.1-1.6
			c-0.4-0.7-2.2-4.6-0.9-7.2c0.5-0.9,1.4-2.2,4.5-2.8c0.9-0.2,1.5-0.9,1.6-1.8c0.2-2,1.2-6.6,7-6.6c1,0,2.2,0.2,3.6,0.5
			c12.5,2.9,32.4,11.9,32.6,12c0.3,0.1,0.5,0.2,0.8,0.2c0.5,0,1.1-0.2,1.5-0.6c0.6-0.6,0.7-1.5,0.3-2.3c-2.1-4.1-2.7-7.6-1.5-9.5
			c0.8-1.2,2-1.5,2.9-1.5c6.5,2.1,83.5,55.5,120,81.2c0.3,0.2,0.7,0.4,1.2,0.4c0.2,0,0.4,0,0.5-0.1c0.6-0.2,1.1-0.6,1.3-1.1
			c0.6-1.5,4.2-9.6,11.6-25.3l14.4-25.9l71.8,34.2l-7,23.9c-14.4,37.2-33.3,61.4-33.7,61.9c-0.1,0.1-0.1,0.1-0.2,0.2
			C1146.2,472.4,1126.5,497.6,1096.3,497.6z"/>
		<path d="M966,324.8c9,4,85.1,56.9,119.2,80.8c0.7,0.5,1.5,0.7,2.3,0.7c0.4,0,0.7,0,1.1-0.2c1.2-0.3,2.1-1.2,2.6-2.3
			c0.6-1.5,4.2-9.6,11.6-25.1l13.5-24.2l68.6,32.7l-6.5,22.2c-14.2,36.8-32.8,60.6-33.4,61.3c-0.1,0.1-0.1,0.1-0.2,0.2
			c-0.2,0.3-5.2,6.6-13.8,12.7c-11.1,7.9-22.7,11.9-34.7,11.9c-1.4,0-3-0.1-4.6-0.2c-32.5-2.8-63.2-34.4-90.2-62.2l-0.3-0.3
			c-11.3-11.6-22-22.6-32.4-31.1c-15.3-12.6-30.9-17.7-42.3-21.4h-0.1h-0.1c-4.7-1.5-8.8-2.8-11-4.2c-1.2-0.7-1.4-1.1-1.3-1.5
			c0.5-0.3,2.3-0.9,6.9-0.9c7.1,0,17,1.9,20.2,2.5c0.4,0.1,0.7,0.1,0.9,0.2c0.2,0,0.5,0.1,0.7,0.1c1.7,0,3.2-1.1,3.8-2.7
			c0.6-1.9-0.2-3.9-2-4.8l-1-0.5c0,0,0,0-0.1,0l-0.5-0.2c-5.4-2.6-21.8-10.5-26.4-13.7c-2.6-1.9-4-4.1-3.9-5.8
			c0.1-0.9,0.6-1.2,1-1.3c1-0.4,1.8-1.3,2.2-2.3s0.3-2.2-0.2-3.2c-0.9-1.7-1.5-4.2-0.9-5.4c0.2-0.3,0.6-1.3,3.1-1.8
			c1.7-0.3,3.1-1.8,3.2-3.6c0.3-3.1,1.9-4.7,5-4.7c0.6,0,1.6,0.1,3.1,0.4c12.3,2.9,32,11.7,32.2,11.8c0.5,0.2,1.1,0.4,1.7,0.4
			c1.1,0,2.1-0.4,2.9-1.2c1.2-1.2,1.4-3.1,0.6-4.6c-2.1-4-2.1-6.6-1.6-7.5C965.2,325.3,965.4,325,966,324.8 M966.5,320.8
			c-2.1,0-3.8,0.9-4.8,2.5c-1.6,2.6-1.1,6.7,1.4,11.5c-3.3-1.5-21.4-9.4-33-12.1c-1.4-0.3-2.8-0.5-4-0.5c-8.1,0-8.9,7.2-9,8.4
			c-3,0.6-4.9,1.9-5.9,3.9c-1.7,3.5,0.4,8,0.9,9c-1.9,0.8-3.1,2.4-3.4,4.5c-0.4,3.3,1.7,6.8,5.5,9.6c5,3.5,22.1,11.7,27.5,14.3
			l1,0.5c-1.7-0.3-13.4-2.7-21.8-2.7c-6.5,0-10.1,1.2-10.7,3.5c-1.6,5.7,4.7,7.7,15,11c11.1,3.6,26.3,8.5,41.1,20.7
			c10.3,8.5,21,19.5,32.3,31.1c27.6,28.4,58.9,60.5,92.8,63.4c1.6,0.1,3.3,0.2,4.9,0.2c31.3,0,51.5-26,51.7-26.3
			c0.2-0.2,19.5-24.7,34.1-62.6l7.5-25.6l-75.1-35.7l-15.3,27.6c-7.6,15.9-11.1,24-11.7,25.4C1080.4,397.4,971.3,320.8,966.5,320.8
			L966.5,320.8z"/>
	</g>
	<g>
		<path d="M970.4,776.7c-0.2,0-0.4,0-0.6-0.1l-23.3-7.4c-1.1-0.3-1.6-1.5-1.3-2.5c0.3-1.1,1.5-1.6,2.5-1.3l23.3,7.4
			c1.1,0.3,1.6,1.5,1.3,2.5C972,776.2,971.2,776.7,970.4,776.7z"/>
	</g>
	<g>
		<path d="M956.6,802.2c-0.4,0-0.9-0.1-1.2-0.4l-18.3-14.4c-0.9-0.7-1-1.9-0.3-2.8c0.7-0.9,1.9-1,2.8-0.3l18.3,14.4
			c0.9,0.7,1,1.9,0.3,2.8C957.8,801.9,957.2,802.2,956.6,802.2z"/>
	</g>
	<g>
		<path d="M1009.6,719.7c-0.7,0-1.4-0.4-1.7-1c-0.5-1-0.2-2.2,0.8-2.7l16.2-9l-31.5-57.4c-0.4-0.8-0.3-1.8,0.4-2.4
			c0.7-0.6,1.7-0.7,2.4-0.3l51.1,31.3l13.5-31.6c0.4-1,1.6-1.5,2.6-1.1c1,0.4,1.5,1.6,1.1,2.6l-14.4,33.7c-0.2,0.5-0.7,0.9-1.2,1.1
			c-0.6,0.2-1.2,0.1-1.7-0.2l-46.7-28.6l28.9,52.5c0.5,1,0.2,2.2-0.8,2.7l-17.9,10C1010.3,719.6,1009.9,719.7,1009.6,719.7z"/>
	</g>
	<g>
		<path d="M960.6,674.2c-0.8,0-1.6-0.5-1.9-1.3L939,620.4l-27.7,21.4c-0.9,0.7-2.1,0.5-2.8-0.4c-0.7-0.9-0.5-2.1,0.4-2.8l29.8-23.1
			c0.5-0.4,1.2-0.5,1.8-0.3c0.6,0.2,1.1,0.6,1.3,1.2l17.4,46.1l3.4-61.3c0-0.6,0.3-1.2,0.9-1.5c0.5-0.4,1.1-0.5,1.7-0.3l51.9,16.2
			l-39.1-37.4c-0.4-0.4-0.6-0.9-0.6-1.5c0-0.6,0.2-1.1,0.6-1.5l42.7-39.3l-61.4,19.1c-0.5,0.2-1.1,0.1-1.6-0.2
			c-0.5-0.3-0.8-0.7-1-1.3l-8.9-36.4c-0.3-1.1,0.4-2.2,1.5-2.4c1.1-0.3,2.2,0.4,2.4,1.5l8.4,34.3l67.9-21.1c0.9-0.3,1.9,0.1,2.3,0.9
			c0.5,0.8,0.3,1.8-0.4,2.5l-47.6,43.9l43.7,41.8c0.7,0.6,0.8,1.7,0.3,2.5c-0.5,0.8-1.4,1.2-2.3,0.9l-57.5-17.9l-3.8,68.2
			c-0.1,0.9-0.8,1.7-1.7,1.9C960.8,674.2,960.7,674.2,960.6,674.2z"/>
	</g>
	<g>
		<path d="M1090.4,571.9c-0.4,0-0.7-0.1-1-0.3c-0.8-0.5-1.1-1.4-0.9-2.3l15.1-52.8l-66.5-6.7c-0.9-0.1-1.6-0.8-1.8-1.7
			c-0.1-0.9,0.3-1.8,1.2-2.1l34.6-15c1-0.4,2.2,0,2.6,1c0.4,1,0,2.2-1,2.6l-27.5,11.9l61.2,6.1c0.6,0.1,1.1,0.4,1.5,0.9
			s0.4,1.1,0.3,1.7l-13.7,47.8l45.8-44.9c0.8-0.8,2-0.8,2.8,0l40.2,38.4l-14-54.2c-0.1-0.6,0-1.1,0.3-1.6c0.3-0.5,0.8-0.8,1.4-0.9
			l52.5-7.2l-28.2-16.7c-1-0.6-1.3-1.8-0.7-2.7c0.6-1,1.8-1.3,2.7-0.7l33.1,19.6c0.7,0.4,1.1,1.3,0.9,2.1c-0.2,0.8-0.8,1.5-1.7,1.6
			l-56,7.7l15.2,58.8c0.2,0.9-0.2,1.8-0.9,2.2c-0.8,0.5-1.7,0.3-2.4-0.3l-43.9-42l-49.8,48.8
			C1091.4,571.7,1090.9,571.9,1090.4,571.9z"/>
	</g>
	<g>
		<path d="M1269.5,543.4c-0.2,0-0.5,0-0.7-0.1l-37.4-14.8c-0.7-0.3-1.2-1-1.3-1.8c0-0.8,0.4-1.5,1.2-1.9l37.4-16.7
			c1-0.4,2.2,0,2.6,1c0.5,1,0,2.2-1,2.6l-33.1,14.8l33,13.1c1,0.4,1.5,1.6,1.1,2.6C1271,542.9,1270.3,543.4,1269.5,543.4z"/>
	</g>
	<g>
		<path d="M1191.8,598.8h-80.7c-1.1,0-2-0.9-2-2s0.9-2,2-2h80.7c23.7,0,42.5-5.5,55.7-16.3c0.9-0.7,2.1-0.6,2.8,0.3
			c0.7,0.9,0.6,2.1-0.3,2.8C1236.1,593,1216.5,598.8,1191.8,598.8z"/>
	</g>
	<path class="st3" d="M1250.7,444.3c-3.3,2.8-39.9,33.8-78.2,33.8c-8.8,0-16.7-1.6-24.3-4.8l-0.1-0.1l0.2-0.2
		c0.2-0.2,18.7-23.7,33.6-62.3l-82.7-33.5l0.1-0.2c6.5-13.6,14.2-29.1,22.7-46.2c10.8-21.6,26.1-33.2,45.4-34.5
		c0.9-0.1,1.9-0.1,2.8-0.1c27.3,0,49.5,27.8,73.1,57.2c31.1,38.9,53.9,72.5,54.1,72.8C1283.2,414,1250.7,444.3,1250.7,444.3z"/>
	<g>
		<path d="M1048.7,598.8h-21.2c-1.1,0-2-0.9-2-2s0.9-2,2-2h21.2c1.1,0,2,0.9,2,2S1049.8,598.8,1048.7,598.8z"/>
	</g>
	<g>
		<path d="M1179,414.5c-0.3,0-0.5,0-0.8-0.2c-1-0.4-1.5-1.6-1.1-2.6c0.1-0.2,6.9-16.8,12.8-33.4c0.4-1,1.5-1.6,2.5-1.2
			c1,0.4,1.6,1.5,1.2,2.5c-5.8,16.7-12.8,33.4-12.8,33.6C1180.5,414,1179.8,414.5,1179,414.5z"/>
	</g>
	<g>
		<path d="M967.4,354.5c-0.3,0-0.6-0.1-0.9-0.2c-0.2-0.1-24.8-11.8-47-19.6c-1-0.4-1.6-1.5-1.2-2.5c0.4-1,1.5-1.6,2.5-1.2
			c22.4,7.8,47.2,19.7,47.4,19.8c1,0.5,1.4,1.7,0.9,2.7C968.9,354.1,968.1,354.5,967.4,354.5z"/>
	</g>
	<g>
		<path d="M961.5,366.3c-0.3,0-0.6-0.1-0.9-0.2c-21-10.1-36.5-16.7-45.9-19.6c-1.1-0.3-1.7-1.4-1.3-2.5c0.3-1.1,1.4-1.6,2.5-1.3
			c9.6,2.9,25.3,9.6,46.5,19.8c1,0.5,1.4,1.7,0.9,2.7C963,365.9,962.2,366.3,961.5,366.3z"/>
	</g>
	<g>
		<path d="M983.2,348.6c-0.3,0-0.6-0.1-0.9-0.2l-20.3-9.6c-1-0.5-1.4-1.7-1-2.7c0.5-1,1.7-1.4,2.7-1l20.3,9.6c1,0.5,1.4,1.7,1,2.7
			C984.7,348.2,983.9,348.6,983.2,348.6z"/>
	</g>
</g>
</svg>
