<svg width="274" height="574" viewBox="0 0 274 574" fill="none" xmlns="http://www.w3.org/2000/svg">
<path d="M42.05 483H43.9328C56.4851 483 66.5269 485.51 80.9619 491.787L81.5896 490.531C74.6858 484.883 70.9202 476.096 67.1545 448.481C64.644 430.281 61.506 418.356 52.7194 412.08C48.3261 408.942 50.8366 405.176 55.2299 407.687C64.644 413.335 77.8239 418.984 91.0037 418.984C116.108 418.984 136.819 407.059 136.819 368.775C136.819 344.925 117.991 327.352 117.991 302.248C117.991 254.549 139.957 231.328 139.957 208.734C139.957 186.14 116.108 166.056 116.108 117.73C116.108 91.9977 131.171 69.4037 131.171 43.6716C131.171 16.0567 112.343 4.75969 79.7067 4.75969C68.4097 4.75969 54.6022 12.291 42.05 12.291C29.4978 12.291 19.456 9.78059 5.0209 3.50444L4.39328 4.75969C15.0627 13.5463 22.594 29.2365 22.594 165.428V329.863C22.594 466.054 15.0627 481.745 4.39328 490.531L5.0209 491.787C19.456 485.51 29.4978 483 42.05 483ZM63.3888 259.57V157.897C63.3888 21.0776 70.2925 12.9187 81.5896 12.9187C92.8866 12.9187 96.0246 19.1948 96.0246 33.6298C96.0246 54.341 79.7067 85.094 79.7067 118.985C79.7067 163.546 129.288 177.981 129.288 209.361C129.288 239.487 81.5896 241.369 81.5896 300.993C81.5896 334.884 97.9075 365.637 97.9075 386.348C97.9075 401.41 94.7694 407.687 84.7276 407.687C70.2925 407.687 63.3888 385.72 63.3888 259.57Z" fill="#1F1F1F"/>
<path d="M255.438 394.507C255.438 311.662 264.225 304.131 273.639 296.599L273.011 295.344C258.576 301.62 248.534 304.131 235.982 304.131H234.099C221.547 304.131 211.505 301.62 197.07 295.344L196.443 296.599C205.857 304.131 214.643 311.662 214.643 394.507C214.643 446.599 235.982 488.021 235.982 506.222C235.982 522.54 227.823 532.581 207.112 532.581C189.539 532.581 182.008 527.56 182.008 511.87C182.008 489.904 200.208 456.64 200.208 420.239C200.208 339.904 148.744 338.022 148.744 297.227C148.744 255.177 202.091 235.721 202.091 175.47C202.091 137.813 183.89 103.295 183.89 80.7008C183.89 68.1485 186.401 63.7552 192.677 63.7552C199.581 63.7552 205.857 72.5418 209.622 93.8806C216.526 131.537 229.078 191.16 235.355 258.943H239.748C237.865 229.445 237.865 201.202 237.865 155.387C237.865 108.316 245.396 76.9351 254.183 55.5963L252.928 54.9687C247.907 59.9896 242.886 61.8724 237.865 61.8724C225.313 61.8724 211.505 54.9687 193.932 54.9687C162.552 54.9687 144.978 66.2657 144.978 93.8806C144.978 126.516 161.924 154.759 161.924 186.767C161.924 244.507 138.075 265.846 138.075 296.599C138.075 326.725 160.041 358.733 160.041 421.494C160.041 449.109 139.33 467.937 139.33 494.297C139.33 530.071 165.69 541.368 207.112 541.368C232.844 541.368 244.769 526.305 244.769 506.222C244.769 482.372 230.334 435.302 237.865 435.302C247.279 435.302 260.459 498.69 264.852 541.368H267.99C267.99 494.297 255.438 454.13 255.438 394.507Z" fill="#1F1F1F"/>
</svg>
